<svg width="61" height="46" viewBox="0 0 61 46" fill="none" xmlns="http://www.w3.org/2000/svg">
<path d="M51.4301 3.88312C47.5701 2.13506 43.4307 0.847169 39.1028 0.10954C39.024 0.0953036 38.9453 0.13088 38.9047 0.202035C38.3723 1.13652 37.7826 2.35563 37.3697 3.31385C32.7148 2.62604 28.0837 2.62604 23.5242 3.31385C23.1112 2.33433 22.5001 1.13652 21.9653 0.202035C21.9247 0.133254 21.846 0.0976776 21.7672 0.10954C17.4417 0.844812 13.3023 2.1327 9.4399 3.88312C9.40646 3.89735 9.3778 3.92109 9.35878 3.9519C1.50736 15.5288 -0.643474 26.8211 0.411652 37.9735C0.416426 38.028 0.447459 38.0802 0.490428 38.1134C5.67057 41.868 10.6884 44.1473 15.6131 45.6581C15.6919 45.6819 15.7754 45.6534 15.8256 45.5894C16.9905 44.0193 18.0289 42.3637 18.9193 40.6228C18.9718 40.5208 18.9217 40.3998 18.8143 40.3595C17.1672 39.7428 15.5988 38.991 14.0901 38.1371C13.9707 38.0684 13.9612 37.8999 14.071 37.8192C14.3885 37.5844 14.706 37.3401 15.0092 37.0935C15.064 37.0484 15.1405 37.0389 15.2049 37.0674C25.1164 41.5336 35.8467 41.5336 45.6412 37.0674C45.7057 37.0366 45.7821 37.0461 45.8393 37.0911C46.1426 37.3378 46.4601 37.5844 46.7799 37.8192C46.8897 37.8999 46.8826 38.0684 46.7632 38.1371C45.2545 39.0075 43.6861 39.7428 42.0366 40.3571C41.9292 40.3975 41.8815 40.5208 41.934 40.6228C42.8435 42.3613 43.8819 44.0168 45.0253 45.587C45.0731 45.6534 45.159 45.6819 45.2378 45.6581C50.1864 44.1473 55.2042 41.868 60.3843 38.1134C60.4297 38.0802 60.4584 38.0304 60.4631 37.9758C61.7259 25.0825 58.3481 13.8828 51.5089 3.95426C51.4921 3.92109 51.4636 3.89735 51.4301 3.88312ZM20.3994 31.1829C17.4154 31.1829 14.9566 28.479 14.9566 25.1584C14.9566 21.8379 17.3677 19.134 20.3994 19.134C23.4549 19.134 25.8899 21.8616 25.8421 25.1584C25.8421 28.479 23.431 31.1829 20.3994 31.1829ZM40.5231 31.1829C37.5392 31.1829 35.0805 28.479 35.0805 25.1584C35.0805 21.8379 37.4914 19.134 40.5231 19.134C43.5787 19.134 46.0136 21.8616 45.9659 25.1584C45.9659 28.479 43.5787 31.1829 40.5231 31.1829Z" fill="white"/>
</svg>
