<svg width="53" height="54" viewBox="0 0 53 54" fill="none" xmlns="http://www.w3.org/2000/svg">
<path d="M26.8225 0.942871C12.3797 0.942871 0.668945 13.0015 0.668945 27.8608C0.668945 39.7554 8.16474 49.8335 18.5561 53.396C18.7019 53.4278 18.8506 53.4435 18.9998 53.4429C19.9689 53.4429 20.3425 52.728 20.3425 52.1069C20.3425 51.4624 20.3191 49.7749 20.3075 47.5249C19.4423 47.7285 18.5573 47.8346 17.6688 47.8413C12.6365 47.8413 11.4923 43.9155 11.4923 43.9155C10.3014 40.8101 8.58507 39.978 8.58507 39.978C6.30831 38.3726 8.57339 38.3257 8.74853 38.3257H8.7602C11.3872 38.5601 12.765 41.1147 12.765 41.1147C14.0726 43.4116 15.824 44.0561 17.3885 44.0561C18.423 44.0354 19.4416 43.7958 20.3775 43.353C20.611 41.6186 21.2882 40.4351 22.0355 39.7554C16.2326 39.0757 10.1263 36.7671 10.1263 26.4546C10.1263 23.5132 11.142 21.1108 12.8117 19.2358C12.5431 18.5562 11.6441 15.814 13.0685 12.1108C13.2596 12.0649 13.456 12.0452 13.6523 12.0522C14.598 12.0522 16.7347 12.4155 20.2608 14.8765C24.5452 13.6733 29.0765 13.6733 33.3609 14.8765C36.887 12.4155 39.0236 12.0522 39.9693 12.0522C40.1657 12.0452 40.3621 12.0649 40.5531 12.1108C41.9776 15.814 41.0785 18.5562 40.81 19.2358C42.4796 21.1226 43.4954 23.5249 43.4954 26.4546C43.4954 36.7905 37.3773 39.064 31.5512 39.7319C32.4852 40.564 33.3259 42.2046 33.3259 44.7124C33.3259 48.3101 33.2908 51.2163 33.2908 52.0952C33.2908 52.728 33.6528 53.4429 34.6219 53.4429C34.7787 53.4436 34.9353 53.4278 35.0889 53.396C45.4919 49.8335 52.9761 39.7436 52.9761 27.8608C52.9761 13.0015 41.2653 0.942871 26.8225 0.942871Z" fill="white"/>
</svg>
