<svg width="56" height="45" viewBox="0 0 56 45" fill="none" xmlns="http://www.w3.org/2000/svg">
<path d="M55.3017 5.44855C53.2879 6.32942 51.1258 6.92457 48.8564 7.19217C51.1724 5.82208 52.9546 3.65056 53.7907 1.0637C51.6229 2.33483 49.2193 3.25612 46.6632 3.75231C44.6169 1.6003 41.7007 0.253906 38.4738 0.253906C32.2756 0.253906 27.2509 5.21439 27.2509 11.3303C27.2509 12.1987 27.3498 13.0433 27.5432 13.8559C18.2141 13.3931 9.9456 8.98319 4.40971 2.28187C3.44376 3.91678 2.89017 5.82069 2.89017 7.85004C2.89017 11.6927 4.47891 15.0838 7.49117 17.0699C5.65105 17.0114 3.43105 16.5138 2.01883 15.6831V15.8225C2.01883 21.19 6.27666 25.6654 11.4101 26.6829C10.4667 26.9366 9.67022 27.0731 8.64777 27.0731C7.92472 27.0731 7.31888 27.0035 6.63395 26.8738C8.06453 31.2726 12.2588 34.4769 17.1677 34.5661C13.3279 37.5363 8.5122 39.3078 3.25593 39.3078C2.34788 39.3078 1.46807 39.2548 0.588257 39.1531C5.55502 42.2961 11.4595 44.1289 17.7975 44.1289C38.4413 44.1289 49.732 27.2515 49.732 12.6154C49.732 12.1345 49.7207 11.6565 49.7009 11.1826C51.8941 9.62154 53.7991 7.66885 55.3017 5.44855Z" fill="white"/>
</svg>
